<svg width="94" height="22" viewBox="0 0 94 22" fill="none" xmlns="http://www.w3.org/2000/svg">
<path d="M18.9919 4.33564L14.629 2.37234H14.5745H14.4436H14.3127H14.04H13.9309H13.7891H13.7346L9.81891 4.1284L5.90321 2.37234H5.84867L5.71778 2.27417H5.5869H5.31422H5.20515H5.06335L0.700457 4.23747C0.482845 4.32086 0.29766 4.47174 0.172039 4.66803C0.0464181 4.86431 -0.0130345 5.09567 0.0023937 5.3282V18.635C0.00269772 18.8175 0.0487893 18.997 0.136446 19.1571C0.224103 19.3172 0.350523 19.4527 0.504127 19.5512C0.679682 19.6646 0.884122 19.7252 1.09312 19.7257C1.24745 19.725 1.39987 19.6916 1.54031 19.6276L5.45601 17.8715L9.37171 19.6276H9.42625C9.54917 19.6851 9.68321 19.7148 9.81891 19.7148C9.9546 19.7148 10.0886 19.6851 10.2116 19.6276H10.2661L14.1818 17.8715L18.0975 19.6276C18.2379 19.6916 18.3904 19.725 18.5447 19.7257C18.7537 19.7252 18.9581 19.6646 19.1337 19.5512C19.2873 19.4527 19.4137 19.3172 19.5014 19.1571C19.589 18.997 19.6351 18.8175 19.6354 18.635V5.3282C19.635 5.11838 19.574 4.91315 19.4599 4.7371C19.3458 4.56105 19.1833 4.42166 18.9919 4.33564ZM6.54674 5.05552L8.72818 6.02626V16.9335L6.54674 15.9628V5.05552ZM17.454 16.9444L15.2725 15.9737V5.06642L17.454 6.03717V16.9444Z" fill="#41BFB3"/>
<path d="M39.2603 17L35.3853 6.875H35.3228C35.3957 7.67708 35.4321 8.63021 35.4321 9.73438V17H34.2056V5.57812H36.2056L39.8228 15H39.8853L43.5337 5.57812H45.5181V17H44.1899V9.64062C44.1899 8.79688 44.2264 7.88021 44.2993 6.89062H44.2368L40.3306 17H39.2603ZM53.889 17L53.6312 15.7812H53.5687C53.1416 16.3177 52.7145 16.6823 52.2874 16.875C51.8656 17.0625 51.3369 17.1562 50.7015 17.1562C49.8525 17.1562 49.1859 16.9375 48.7015 16.5C48.2223 16.0625 47.9828 15.4401 47.9828 14.6328C47.9828 12.9036 49.3656 11.9974 52.1312 11.9141L53.5843 11.8672V11.3359C53.5843 10.6641 53.4385 10.1693 53.1468 9.85156C52.8604 9.52865 52.3994 9.36719 51.764 9.36719C51.0505 9.36719 50.2432 9.58594 49.3421 10.0234L48.9437 9.03125C49.3656 8.80208 49.8265 8.6224 50.3265 8.49219C50.8317 8.36198 51.3369 8.29688 51.8421 8.29688C52.863 8.29688 53.6182 8.52344 54.1078 8.97656C54.6025 9.42969 54.8499 10.1562 54.8499 11.1562V17H53.889ZM50.9593 16.0859C51.7666 16.0859 52.3994 15.8646 52.8578 15.4219C53.3213 14.9792 53.5531 14.3594 53.5531 13.5625V12.7891L52.2562 12.8438C51.2249 12.8802 50.4801 13.0417 50.0218 13.3281C49.5687 13.6094 49.3421 14.0495 49.3421 14.6484C49.3421 15.1172 49.4828 15.474 49.764 15.7188C50.0505 15.9635 50.4489 16.0859 50.9593 16.0859ZM61.674 17.1562C61.1167 17.1562 60.6063 17.0547 60.1428 16.8516C59.6844 16.6432 59.299 16.3255 58.9865 15.8984H58.8928C58.9553 16.3984 58.9865 16.8724 58.9865 17.3203V20.8438H57.6896V8.4375H58.7443L58.924 9.60938H58.9865C59.3198 9.14062 59.7079 8.80208 60.1506 8.59375C60.5933 8.38542 61.1011 8.28125 61.674 8.28125C62.8094 8.28125 63.6844 8.66927 64.299 9.44531C64.9188 10.2214 65.2287 11.3099 65.2287 12.7109C65.2287 14.1172 64.9136 15.2109 64.2834 15.9922C63.6584 16.7682 62.7886 17.1562 61.674 17.1562ZM61.4865 9.38281C60.6115 9.38281 59.9787 9.625 59.5881 10.1094C59.1974 10.5938 58.9969 11.3646 58.9865 12.4219V12.7109C58.9865 13.9141 59.187 14.776 59.5881 15.2969C59.9891 15.8125 60.6323 16.0703 61.5178 16.0703C62.2573 16.0703 62.8355 15.7708 63.2521 15.1719C63.674 14.5729 63.8849 13.7474 63.8849 12.6953C63.8849 11.6276 63.674 10.8099 63.2521 10.2422C62.8355 9.66927 62.2469 9.38281 61.4865 9.38281Z" fill="#EFEFEF"/>
</svg>
