<svg width="101" height="38" viewBox="0 0 101 38" fill="none" xmlns="http://www.w3.org/2000/svg">
<path d="M5.76 23.64H14.52V27H1.44V10.2H5.76V23.64ZM24.1256 27H15.4856V23.64H17.6456V13.56H15.4856V10.2H24.1256V13.56H21.9656V23.64H24.1256V27ZM33.3638 21.96L37.4438 10.2H42.1238L35.7638 27H30.9638L24.6037 10.2H29.2838L33.3638 21.96ZM56.6428 27H43.3228V10.2H56.6428V13.56H47.6428V16.8H54.7228V20.16H47.6428V23.64H56.6428V27Z" fill="#41BFB3"/>
<path fill-rule="evenodd" clip-rule="evenodd" d="M75.0139 10.6114C74.3172 10.447 73.5885 10.4797 72.9094 10.7061C72.2302 10.9324 71.6275 11.3434 71.1688 11.893C70.7101 12.4426 70.4135 13.109 70.3122 13.8177C70.2414 14.3134 70.5857 14.7726 71.0814 14.8434C71.577 14.9143 72.0363 14.5699 72.1071 14.0742C72.1608 13.6989 72.3179 13.3459 72.5608 13.0548C72.8038 12.7638 73.123 12.5461 73.4827 12.4262C73.8424 12.3063 74.2283 12.289 74.5973 12.3761C74.9663 12.4632 75.3038 12.6513 75.5719 12.9194C75.84 13.1875 76.0281 13.525 76.1153 13.894C76.2024 14.263 76.185 14.649 76.0651 15.0087C75.9453 15.3684 75.7276 15.6876 75.4365 15.9305C75.1454 16.1735 74.7924 16.3306 74.4171 16.3842C73.9214 16.4551 73.5771 16.9143 73.6479 17.41C73.7188 17.9056 74.178 18.25 74.6736 18.1791C75.3823 18.0779 76.0488 17.7812 76.5983 17.3225C77.1479 16.8638 77.5589 16.2611 77.7853 15.582C78.0116 14.9029 78.0444 14.1741 77.8799 13.4774C77.7154 12.7807 77.3602 12.1435 76.854 11.6373C76.3478 11.1312 75.7107 10.7759 75.0139 10.6114ZM66.0739 10.7062C65.3948 10.4798 64.666 10.447 63.9693 10.6115C63.2726 10.776 62.6354 11.1312 62.1293 11.6374C61.6231 12.1436 61.2678 12.7808 61.1033 13.4775C60.9389 14.1742 60.9716 14.9029 61.198 15.5821C61.4243 16.2612 61.8353 16.8639 62.3849 17.3226C62.9345 17.7813 63.6009 18.0779 64.3096 18.1792C64.8053 18.2501 65.2645 17.9057 65.3353 17.41C65.4062 16.9144 65.0618 16.4552 64.5661 16.3843C64.1908 16.3307 63.8378 16.1736 63.5467 15.9306C63.2557 15.6877 63.038 15.3685 62.9181 15.0088C62.7982 14.6491 62.7809 14.2631 62.868 13.8941C62.9551 13.5251 63.1432 13.1876 63.4113 12.9195C63.6794 12.6514 64.0169 12.4633 64.3859 12.3762C64.7549 12.289 65.1409 12.3064 65.5006 12.4263C65.8603 12.5462 66.1795 12.7638 66.4224 13.0549C66.6654 13.346 66.8225 13.699 66.8761 14.0743C66.947 14.57 67.4062 14.9144 67.9019 14.8435C68.3975 14.7727 68.7419 14.3134 68.671 13.8178C68.5698 13.1091 68.2731 12.4427 67.8144 11.8931C67.3557 11.3435 66.753 10.9325 66.0739 10.7062ZM64.2177 13.7263C64.5718 13.3723 65.1458 13.3723 65.4998 13.7263L68.1823 16.4087H70.8011L73.4835 13.7263C73.8376 13.3723 74.4116 13.3723 74.7656 13.7263C75.1197 14.0803 75.1197 14.6543 74.7656 15.0084L72.0831 17.6909V20.3092L74.7656 22.9917C75.1197 23.3457 75.1197 23.9198 74.7656 24.2738C74.4116 24.6278 73.8376 24.6278 73.4835 24.2738L70.801 21.5913H68.1824L65.4998 24.2738C65.1458 24.6278 64.5718 24.6278 64.2177 24.2738C63.8637 23.9198 63.8637 23.3457 64.2177 22.9917L66.9005 20.3089V17.6912L64.2177 15.0084C63.8637 14.6543 63.8637 14.0803 64.2177 13.7263ZM68.7137 18.2219V19.7781H70.2699V18.2219H68.7137ZM74.6736 19.8209C74.178 19.75 73.7188 20.0944 73.6479 20.59C73.5771 21.0857 73.9214 21.5449 74.4171 21.6158C74.7924 21.6694 75.1454 21.8265 75.4365 22.0695C75.7276 22.3124 75.9453 22.6316 76.0651 22.9913C76.185 23.351 76.2024 23.737 76.1153 24.106C76.0281 24.475 75.84 24.8125 75.5719 25.0806C75.3038 25.3487 74.9663 25.5368 74.5973 25.6239C74.2283 25.711 73.8424 25.6937 73.4827 25.5738C73.123 25.4539 72.8038 25.2362 72.5608 24.9452C72.3179 24.6541 72.1608 24.3011 72.1071 23.9258C72.0363 23.4301 71.577 23.0857 71.0814 23.1566C70.5857 23.2274 70.2414 23.6867 70.3122 24.1823C70.4135 24.891 70.7101 25.5574 71.1688 26.107C71.6275 26.6566 72.2302 27.0676 72.9094 27.2939C73.5885 27.5203 74.3172 27.5531 75.0139 27.3886C75.7107 27.2241 76.3478 26.8688 76.854 26.3627C77.3602 25.8565 77.7154 25.2193 77.8799 24.5226C78.0444 23.8259 78.0116 23.0972 77.7853 22.418C77.5589 21.7389 77.1479 21.1362 76.5983 20.6775C76.0488 20.2188 75.3823 19.9221 74.6736 19.8209ZM64.5659 21.6158C65.0616 21.5449 65.406 21.0857 65.3351 20.59C65.2643 20.0944 64.805 19.75 64.3094 19.8209C63.6007 19.9221 62.9343 20.2188 62.3847 20.6775C61.8351 21.1362 61.4241 21.7389 61.1978 22.418C60.9714 23.0972 60.9387 23.8259 61.1031 24.5226C61.2676 25.2193 61.6229 25.8565 62.129 26.3627C62.6352 26.8688 63.2724 27.2241 63.9691 27.3886C64.6658 27.5531 65.3946 27.5203 66.0737 27.2939C66.7528 27.0676 67.3555 26.6566 67.8142 26.107C68.2729 25.5574 68.5696 24.891 68.6708 24.1823C68.7417 23.6867 68.3973 23.2274 67.9017 23.1566C67.406 23.0857 66.9468 23.4301 66.8759 23.9258C66.8223 24.3011 66.6652 24.6541 66.4222 24.9452C66.1793 25.2362 65.8601 25.4539 65.5004 25.5738C65.1407 25.6937 64.7547 25.711 64.3857 25.6239C64.0167 25.5368 63.6792 25.3487 63.4111 25.0806C63.143 24.8125 62.9549 24.475 62.8678 24.106C62.7807 23.737 62.798 23.351 62.9179 22.9913C63.0378 22.6316 63.2555 22.3124 63.5465 22.0695C63.8376 21.8265 64.1906 21.6694 64.5659 21.6158Z" fill="#41BFB3"/>
</svg>
