<svg width="18" height="20" viewBox="0 0 18 20" fill="none" xmlns="http://www.w3.org/2000/svg">
<path d="M7.89108 0.743147C8.46363 0.201829 9.35925 0.201829 9.9318 0.743147L17.1255 7.54447C17.5706 7.96529 17.8228 8.5508 17.8228 9.16331V17.4349C17.8228 18.6652 16.8253 19.6627 15.5949 19.6627H13.3671C12.1367 19.6627 11.1393 18.6652 11.1393 17.4349V13.7218C11.1393 13.3117 10.8068 12.9792 10.3967 12.9792H7.42622C7.01609 12.9792 6.68361 13.3117 6.68361 13.7218V17.4349C6.68361 18.6652 5.68614 19.6627 4.45578 19.6627H2.22795C0.997595 19.6627 0.00012207 18.6652 0.00012207 17.4349V9.16331C0.00012207 8.5508 0.252312 7.96529 0.697432 7.54447L7.89108 0.743147Z" fill="#41BFB3"/>
</svg>
