<svg width="20" height="18" viewBox="0 0 20 18" fill="none" xmlns="http://www.w3.org/2000/svg">
<path d="M18.9919 2.33564L14.629 0.372335H14.5745H14.4436H14.3127H14.04H13.9309H13.7891H13.7346L9.81891 2.1284L5.90321 0.372335H5.84867L5.71778 0.27417H5.5869H5.31422H5.20515H5.06335L0.700457 2.23747C0.482845 2.32086 0.29766 2.47174 0.172039 2.66803C0.0464181 2.86431 -0.0130345 3.09567 0.0023937 3.3282V16.635C0.00269772 16.8175 0.0487893 16.997 0.136446 17.1571C0.224103 17.3172 0.350523 17.4527 0.504127 17.5512C0.679682 17.6646 0.884122 17.7252 1.09312 17.7257C1.24745 17.725 1.39987 17.6916 1.54031 17.6276L5.45601 15.8715L9.37171 17.6276H9.42625C9.54917 17.6851 9.68321 17.7148 9.81891 17.7148C9.9546 17.7148 10.0886 17.6851 10.2116 17.6276H10.2661L14.1818 15.8715L18.0975 17.6276C18.2379 17.6916 18.3904 17.725 18.5447 17.7257C18.7537 17.7252 18.9581 17.6646 19.1337 17.5512C19.2873 17.4527 19.4137 17.3172 19.5014 17.1571C19.589 16.997 19.6351 16.8175 19.6354 16.635V3.3282C19.635 3.11838 19.574 2.91315 19.4599 2.7371C19.3458 2.56105 19.1833 2.42166 18.9919 2.33564ZM6.54674 3.05552L8.72818 4.02626V14.9335L6.54674 13.9628V3.05552ZM17.454 14.9444L15.2725 13.9737V3.06642L17.454 4.03717V14.9444Z" fill="#41BFB3"/>
</svg>
