<svg width="20" height="20" viewBox="0 0 20 20" fill="none" xmlns="http://www.w3.org/2000/svg">
<path d="M7.82731 19.763L12.3097 12L15.8412 18.117C14.141 19.3443 12.0968 20.0033 10 20C9.25411 20 8.52721 19.918 7.82731 19.763ZM5.8906 19.12C4.60598 18.5391 3.45829 17.6938 2.52244 16.6393C1.58658 15.5847 0.883604 14.3447 0.459384 13H9.42308L5.8906 19.119V19.12ZM0.0514434 11C-0.0916414 9.59725 0.0645816 8.18011 0.509786 6.84224C0.95499 5.50436 1.67904 4.27623 2.63407 3.23901L7.11242 11H0.0514434ZM4.15985 1.88301C5.85972 0.655891 7.90359 -0.00309877 10 1.09555e-05C10.7459 1.09555e-05 11.4728 0.0820109 12.1727 0.237011L7.69033 8L4.15985 1.88301ZM14.1094 0.88001C15.394 1.46089 16.5417 2.30619 17.4776 3.36073C18.4134 4.41527 19.1164 5.65534 19.5406 7H10.5769L14.1094 0.88001ZM19.9486 9C20.0916 10.4027 19.9354 11.8199 19.4902 13.1578C19.045 14.4956 18.321 15.7238 17.3659 16.761L12.8876 9H19.9506H19.9486Z" fill="#41BFB3"/>
</svg>
